# xmcd CD database file generated by Grip 3.3.1
# 
# Track frame offsets:
#       150
#       18677
#       42088
#       70063
#       84720
#       104882
#       127908
#       151213
#       166101
#       201900
#       293476
# 
# Disc length: 4194 seconds
# 
# Revision: 1
# Processed by: cddbd v1.5.2PL0 Copyright (c) Steve Scherf et al.
# Submitted via: Grip 3.3.1
# 
DISCID=9110600b
DTITLE=Blues Traveler - 25 Disc2 (B Sides - B-Sides Yourself)
DYEAR=2012
DGENRE=Blues
TTITLE0=The Demon
TTITLE1=The Poignant and Epic Saga Of Featherhead and Lucky Lack
TTITLE2=Blue Hour
TTITLE3=Trust In Trust
TTITLE4=Didn't Mean To Wake Up
TTITLE5=But Anyway '88
TTITLE6=Random Amounts
TTITLE7=Twelve Swords
TTITLE8=The Sun And The Storm
TTITLE9=Traveler's Suite
TTITLE10=Run Around (Gunslinger Remix - Bonus Track)
EXTD=
EXTT0=
EXTT1=
EXTT2=
EXTT3=
EXTT4=
EXTT5=
EXTT6=
EXTT7=
EXTT8=
EXTT9=
EXTT10=
PLAYORDER=
